<svg fill="#000000" xmlns="http://www.w3.org/2000/svg" viewBox="0 0 50 50" width="32px" height="32px"><path fill="none" stroke="#000000" stroke-linecap="round" stroke-linejoin="round" stroke-miterlimit="10" stroke-width="2" d="M35,10c-5.127,0-10,3-10,3s-4.873-3-10-3S4,13,4,13L1,40c0,0,6.8-3,14-3c4.691,0,10,3,10,3s5.309-3,10-3c7.2,0,14,3,14,3l-3-27C46,13,40.127,10,35,10L35,10z"/><path d="M25,36.071c-0.139,0-0.277-0.029-0.407-0.087C22.541,35.069,18.798,34,15,34c-3.021,0-6.63,0.555-8.981,1.381c-0.325,0.115-0.689,0.052-0.959-0.165s-0.407-0.559-0.364-0.903l2.313-18.438c0.037-0.299,0.207-0.564,0.463-0.724C9.166,14.094,12.446,13,15,13c4.824,0,8.552,2.53,10.019,3.701c1.379-1.063,4.652-3.332,7.869-3.695c0.266-0.029,0.532,0.047,0.738,0.214c0.208,0.167,0.341,0.41,0.368,0.675l2,19c0.03,0.286-0.064,0.571-0.259,0.782S35.276,34.015,34.977,34c-3.224-0.072-6.686,0.645-9.556,1.979C25.288,36.04,25.144,36.071,25,36.071z"/></svg>